<svg width="134" height="31" viewBox="0 0 134 31" fill="none" xmlns="http://www.w3.org/2000/svg">
<path d="M0.56 8.92C0.56 13.4 3.16 16.24 8.12 17.32L12.76 18.36C15.16 18.88 16.16 20.04 16.16 22C16.16 24.44 14 25.92 10.6 25.92C7.32 25.92 5.32 24.44 5.28 21.96H0.16C0.28 27.2 4.36 30.52 10.6 30.52C17.04 30.52 21.28 27 21.28 21.56C21.28 17.2 18.84 14.64 13.84 13.56L9.24 12.56C6.8 12 5.68 10.84 5.68 8.76C5.68 6.32 7.72 4.8 10.88 4.8C13.76 4.8 15.56 6.28 15.68 8.8H20.8C20.64 3.52 16.88 0.239999 10.96 0.239999C4.8 0.239999 0.56 3.8 0.56 8.92ZM30.1119 30V24.68L32.9919 21.68L38.1519 30H43.7519L36.3919 18.08L43.9119 10.24H37.7919L30.1119 18.52V0.239999H25.2719V30H30.1119ZM54.6569 30.52C59.8169 30.52 63.4169 27.92 64.2569 23.6H59.7369C59.1769 25.48 57.4169 26.52 54.7369 26.52C51.4969 26.52 49.6569 24.76 49.2969 21.28L64.1769 21.24V19.76C64.1769 13.6 60.4169 9.64 54.4969 9.64C48.6969 9.64 44.6569 13.92 44.6569 20.12C44.6569 26.24 48.7769 30.52 54.6569 30.52ZM54.5369 13.64C57.4569 13.64 59.3369 15.44 59.3369 18.16H49.4169C49.8969 15.2 51.6569 13.64 54.5369 13.64ZM74.6072 30V14.32H78.4472V10.24H74.6072V4.08H69.7272V10.24H65.9272V14.32H69.7272V30H74.6072ZM80.1256 20.08C80.1256 26.36 84.0456 30.52 90.0456 30.52C95.2056 30.52 99.0456 27.36 99.6456 22.76H94.7256C94.2056 24.92 92.4856 26.12 90.0456 26.12C86.9256 26.12 85.0056 23.8 85.0056 20.08C85.0056 16.36 87.0856 14 90.2056 14C92.5256 14 94.1656 15.16 94.7256 17.4H99.6056C99.0856 12.64 95.4056 9.64 90.0056 9.64C84.1656 9.64 80.1256 13.96 80.1256 20.08ZM108.158 30V19.2C108.158 16.24 109.958 14.08 113.038 14.08C115.518 14.08 117.158 15.68 117.158 19V30H122.038V17.84C122.038 12.72 119.478 9.64 114.598 9.64C111.758 9.64 109.438 10.88 108.198 12.8V0.239999H103.278V30H108.158Z" fill="white"/>
<path d="M130.113 30.48C131.873 30.48 133.353 29.04 133.353 27.32C133.353 25.56 131.873 24.12 130.113 24.12C128.353 24.12 126.873 25.56 126.873 27.32C126.873 29.04 128.353 30.48 130.113 30.48Z" fill="#C1FF00"/>
</svg>
