<svg width="111" height="109" viewBox="0 0 111 109" fill="none" xmlns="http://www.w3.org/2000/svg">
<path d="M71.9501 19.8342C60.3279 35.0453 43.8953 34.3259 37.1318 32.0649C49.9203 45.3004 44.5725 62.2382 40.3 69.0527C52.4683 53.4014 69.6125 54.8202 76.6636 57.486C64.5715 49.7101 68.4829 29.1449 71.9501 19.8342Z" fill="#6952F9"/>
<path d="M29.0388 40.9855C22.1759 50.1405 13.1602 50.233 9.5102 49.1349C16.1344 56.3923 12.669 66.3516 10.1082 70.4241C17.2851 60.9976 26.6706 61.2875 30.4662 62.6107C24.0561 58.4887 26.8438 46.4764 29.0388 40.9855Z" fill="#6952F9"/>
<path d="M81.7646 60.6245C73.7763 71.2806 63.2824 71.3883 59.034 70.1101C66.7443 78.5574 62.7106 90.1497 59.73 94.8899C68.0837 83.9179 79.008 84.2553 83.4259 85.7955C75.9649 80.9976 79.2096 67.0157 81.7646 60.6245Z" fill="#6952F9"/>
</svg>
