<svg width="37" height="32" viewBox="0 0 37 32" fill="none" xmlns="http://www.w3.org/2000/svg">
<path d="M34.9439 0C31.4494 0 27.5119 1.83393 23.2791 5.42408C20.3096 7.94184 17.7666 10.8171 16.0111 12.9929C14.5387 12.5684 12.9818 12.4762 11.465 12.7239C9.94825 12.9716 8.51376 13.5522 7.27636 14.4193C6.03896 15.2864 5.03301 16.4158 4.33903 17.7172C3.64506 19.0186 3.28233 20.4559 3.27988 21.9139C3.27988 26.7629 0.622064 28.9232 0.490814 29.032C0.277073 29.1885 0.121906 29.4057 0.0480865 29.6519C-0.025733 29.8981 -0.0143174 30.1601 0.0806579 30.3997C0.164569 30.6455 0.329206 30.8596 0.550556 31.0105C0.771905 31.1615 1.03839 31.2415 1.31113 31.239H13.1236C14.6628 31.2366 16.1799 30.893 17.5537 30.2356C18.9275 29.5782 20.1198 28.6253 21.0351 27.4531C21.9504 26.2809 22.5633 24.9219 22.8248 23.4851C23.0862 22.0483 22.989 20.5734 22.5408 19.1785C24.8377 17.5156 27.8728 15.1066 30.5307 12.2935C34.3205 8.28376 36.2564 4.55374 36.2564 1.24334C36.2564 0.913587 36.1182 0.597338 35.872 0.364166C35.6259 0.130994 35.292 0 34.9439 0V0ZM18.4393 14.0808C18.915 13.5058 19.4728 12.853 20.1127 12.1381C21.4259 12.978 22.5565 14.0491 23.4432 15.2931C22.6885 15.8992 21.9994 16.4276 21.3924 16.8784C20.633 15.7546 19.6255 14.8002 18.4393 14.0808V14.0808ZM25.4283 13.6301C24.4467 12.3271 23.2436 11.1875 21.8682 10.2576C25.0838 6.96271 29.415 3.35702 33.4838 2.62656C32.7127 6.48092 28.9064 10.5839 25.4283 13.6301V13.6301Z" fill="#6952F9"/>
</svg>
