<svg width="198" height="198" viewBox="0 0 198 198" fill="none" xmlns="http://www.w3.org/2000/svg">
<path d="M17.4101 103.647L17.2402 102.299L7.3139 103.698L8.03491 109.421L9.28428 109.245L8.73313 104.87L17.4101 103.647Z" fill="#6952F9"/>
<path d="M9.1193 115.669C9.48211 117.307 10.522 118.22 12.0071 118.195L11.7432 117.004C10.9416 116.974 10.3939 116.424 10.175 115.436C9.89618 114.177 10.5014 113.256 11.8666 112.817L13.0134 117.931L13.4845 117.814C15.4359 117.331 16.455 115.779 16.0382 113.897C15.6124 111.975 13.895 111.015 11.836 111.526C9.79033 112.032 8.68754 113.719 9.1193 115.669ZM14.975 114.161C15.2239 115.284 14.6561 116.182 13.566 116.452L12.7204 112.634C13.9138 112.51 14.7292 113.051 14.975 114.161Z" fill="#6952F9"/>
<path d="M11.5233 123.946L16.903 122.109L17.2916 123.382L18.3282 123.028L17.9396 121.755L19.9472 121.07L19.5667 119.823L17.5591 120.509L17.1706 119.236L16.134 119.59L16.5226 120.863L11.1428 122.7L11.5233 123.946Z" fill="#6952F9"/>
<path d="M14.5558 126.851C13.3715 127.361 12.9583 128.64 13.5311 130.128C14.1089 131.629 15.2587 132.34 16.443 131.83C17.3727 131.43 17.6523 130.691 17.4936 129.507L17.3326 128.279C17.2464 127.593 17.407 127.161 17.8272 126.98C18.4003 126.734 18.8957 127.018 19.1896 127.781C19.4735 128.519 19.2431 129.116 18.6291 129.411L19.0774 130.575C20.2518 130.039 20.6671 128.804 20.1342 127.42C19.5962 126.022 18.4918 125.352 17.3457 125.845C16.4288 126.24 16.0855 127.006 16.2514 128.247L16.4251 129.47C16.5136 130.201 16.3386 130.518 15.9183 130.699C15.3453 130.945 14.8122 130.602 14.4834 129.748C14.1746 128.946 14.3674 128.289 15.0041 128.015L14.5558 126.851Z" fill="#6952F9"/>
<path d="M21.3662 138.482C19.7621 139.5 19.1109 141.356 20.0613 143.032C20.5878 143.961 21.4235 144.481 22.3097 144.443L21.1623 145.171C20.0733 145.862 18.9605 145.583 18.3315 144.474C17.7708 143.485 17.8934 142.521 18.6544 141.842L18.0116 140.708C16.6828 141.846 16.4268 143.501 17.3362 145.105C18.3618 146.914 20.1589 147.332 21.9621 146.189L27.4536 142.706L26.8793 141.693L25.8596 142.225C26.3618 141.398 26.3663 140.395 25.8261 139.442C24.8552 137.729 22.9821 137.458 21.3662 138.482ZM22.0324 139.601C23.0862 138.933 24.3121 139.074 24.9549 140.208C25.6113 141.366 25.1979 142.546 24.0973 143.244C22.9732 143.957 21.7804 143.762 21.1309 142.616C20.5018 141.507 20.9551 140.285 22.0324 139.601Z" fill="#6952F9"/>
<path d="M25.3536 151.922C26.3225 153.291 27.6206 153.712 28.9543 153.08L28.2496 152.084C27.5127 152.385 26.8021 152.1 26.2176 151.273C25.4729 150.221 25.6602 149.119 26.7239 148.153L29.7617 152.423L30.1422 152.122C31.7186 150.875 32.0336 149.018 30.9206 147.445C29.7835 145.838 27.8543 145.652 26.1909 146.969C24.5384 148.276 24.2004 150.292 25.3536 151.922ZM30.0617 148.125C30.7263 149.064 30.5637 150.129 29.683 150.826L27.4249 147.634C28.4559 147.03 29.4051 147.197 30.0617 148.125Z" fill="#6952F9"/>
<path d="M30.6936 158.439L34.8434 154.554L35.6976 155.575L36.4972 154.826L35.643 153.805L37.1916 152.356L36.3552 151.356L34.8066 152.806L33.9523 151.785L33.1527 152.534L34.007 153.554L29.8571 157.44L30.6936 158.439Z" fill="#6952F9"/>
<path d="M38.3473 163.668C37.5312 164.667 37.7428 166.004 38.9194 167.081C40.1062 168.166 41.4425 168.281 42.2586 167.283C42.8992 166.499 42.8132 165.708 42.1395 164.716L41.4439 163.686C41.0581 163.108 41.0056 162.648 41.2952 162.293C41.6901 161.81 42.2559 161.84 42.8596 162.392C43.4428 162.925 43.5083 163.567 43.0988 164.112L44.0196 164.954C44.8153 163.937 44.6256 162.638 43.5309 161.637C42.4259 160.626 41.1481 160.527 40.3583 161.493C39.7265 162.266 39.7686 163.111 40.4744 164.15L41.1788 165.17C41.5865 165.787 41.5747 166.151 41.2851 166.505C40.8902 166.988 40.2645 166.923 39.5892 166.305C38.9549 165.725 38.8294 165.047 39.2681 164.51L38.3473 163.668Z" fill="#6952F9"/>
<path d="M44.9675 171.891L48.2332 167.238L49.2801 168.06L49.9093 167.164L48.8624 166.342L50.081 164.605L49.0559 163.801L47.8373 165.537L46.7904 164.715L46.1611 165.612L47.208 166.433L43.9424 171.087L44.9675 171.891Z" fill="#6952F9"/>
<path d="M49.9431 175.617C50.8572 176.22 51.8791 176.314 52.5629 175.837L52.122 176.856L53.0477 177.467L55.2109 173.801C56.141 172.225 55.6431 170.835 54.243 169.91C52.785 168.948 51.3409 169.106 50.6222 170.324L51.571 170.951C51.9868 170.246 52.7541 170.172 53.6682 170.775C54.4319 171.28 54.7946 172 54.2168 172.979L54.1181 173.146L52.2516 172.113C50.8575 171.342 49.6876 171.499 49.0535 172.574C48.4264 173.637 48.7281 174.815 49.9431 175.617ZM50.7698 174.952C50.064 174.486 49.8075 173.885 50.1739 173.264C50.5121 172.691 51.131 172.568 52.1478 173.107L53.6647 173.942L53.4815 174.253C52.8332 175.351 51.7997 175.631 50.7698 174.952Z" fill="#6952F9"/>
<path d="M62.3707 174.797C62.1634 174.621 62.0049 174.504 61.7978 174.391C60.9814 173.948 60.1785 174.048 59.6261 174.552L60.001 173.589L58.9287 173.007L55.9744 179.094L57.1197 179.716L58.6877 176.485C59.2568 175.313 60.2539 175.003 61.3383 175.592L61.8501 175.87L62.3707 174.797Z" fill="#6952F9"/>
<path d="M63.6113 182.891L65.7521 177.624L66.9637 178.175L67.3762 177.161L66.1646 176.61L66.9635 174.645L65.7771 174.105L64.9782 176.07L63.7666 175.519L63.3541 176.534L64.5657 177.085L62.4249 182.351L63.6113 182.891Z" fill="#6952F9"/>
<path d="M70.1386 185.629C71.7195 186.19 73.0384 185.791 73.7925 184.515L72.6427 184.107C72.1987 184.772 71.4457 184.946 70.4919 184.608C69.2768 184.176 68.8104 183.172 69.151 181.778L74.094 183.519L74.2409 183.057C74.8492 181.14 74.0629 179.45 72.2468 178.805C70.3915 178.146 68.6794 179.096 68.0376 181.118C67.3999 183.127 68.2571 184.961 70.1386 185.629ZM71.9154 179.849C72.9998 180.234 73.4658 181.193 73.126 182.264L69.4415 180.955C69.959 179.874 70.844 179.468 71.9154 179.849Z" fill="#6952F9"/>
<path d="M78.7364 188.148C79.7884 188.399 80.7768 188.15 81.402 187.344L81.2527 188.577L82.3857 188.847L84.512 178.866L83.2577 178.567L82.3158 182.988C82.0441 182.068 81.2897 181.418 80.2782 181.177C78.3225 180.711 76.8314 181.923 76.398 183.957C75.9675 185.978 76.8212 187.691 78.7364 188.148ZM79.2382 187.056C77.9434 186.748 77.3962 185.591 77.688 184.222C77.9769 182.866 78.9402 182.069 80.2349 182.378C81.5297 182.687 82.1175 183.853 81.8286 185.209C81.5339 186.592 80.533 187.365 79.2382 187.056Z" fill="#6952F9"/>
<path d="M91.0883 186.946L95.3056 187.257L95.3824 186.095L91.165 185.783L91.0883 186.946Z" fill="#6952F9"/>
<path d="M104.586 180.221L103.232 180.333L103.966 190.33L109.715 189.858L109.622 188.6L105.228 188.961L104.586 180.221Z" fill="#6952F9"/>
<path d="M115.424 189.103C117.073 188.795 118.056 187.779 118.142 186.282L116.943 186.506C116.853 187.313 116.268 187.845 115.273 188.032C114.005 188.269 113.139 187.627 112.808 186.236L117.957 185.258L117.877 184.78C117.545 182.797 116.086 181.716 114.191 182.071C112.256 182.433 111.177 184.13 111.527 186.222C111.874 188.301 113.462 189.471 115.424 189.103ZM114.372 183.151C115.503 182.939 116.349 183.543 116.534 184.65L112.691 185.37C112.658 184.163 113.254 183.36 114.372 183.151Z" fill="#6952F9"/>
<path d="M123.263 187.109L121.891 181.592L123.173 181.236L122.909 180.173L121.627 180.529L121.114 178.471L119.859 178.82L120.371 180.879L119.089 181.236L119.353 182.299L120.635 181.942L122.008 187.458L123.263 187.109Z" fill="#6952F9"/>
<path d="M126.062 184.264C126.461 185.49 127.674 185.948 129.172 185.402C130.683 184.851 131.472 183.694 131.073 182.468C130.759 181.505 130.062 181.199 128.895 181.329L127.684 181.46C127.008 181.53 126.6 181.354 126.459 180.919C126.266 180.326 126.584 179.826 127.353 179.546C128.095 179.276 128.658 179.528 128.895 180.164L130.067 179.737C129.642 178.521 128.472 178.062 127.078 178.57C125.671 179.082 124.926 180.194 125.312 181.381C125.621 182.33 126.34 182.702 127.564 182.566L128.77 182.422C129.49 182.351 129.784 182.539 129.926 182.974C130.119 183.567 129.74 184.104 128.88 184.417C128.072 184.711 127.449 184.496 127.234 183.837L126.062 184.264Z" fill="#6952F9"/>
<path d="M137.438 177.941C138.285 179.641 140.013 180.375 141.696 179.436C142.629 178.916 143.193 178.062 143.228 177.139L143.834 178.355C144.41 179.509 144.054 180.659 142.94 181.28C141.947 181.834 141.033 181.677 140.443 180.865L139.304 181.499C140.289 182.917 141.855 183.233 143.466 182.335C145.282 181.322 145.826 179.464 144.874 177.553L141.973 171.733L140.956 172.301L141.385 173.378C140.632 172.83 139.671 172.795 138.714 173.329C136.994 174.288 136.585 176.229 137.438 177.941ZM138.564 177.282C138.007 176.165 138.24 174.893 139.379 174.259C140.541 173.61 141.64 174.076 142.221 175.243C142.815 176.434 142.533 177.669 141.383 178.311C140.269 178.932 139.133 178.423 138.564 177.282Z" fill="#6952F9"/>
<path d="M150.389 174.493C151.761 173.527 152.254 172.181 151.751 170.757L150.753 171.459C150.985 172.244 150.663 172.979 149.835 173.562C148.781 174.305 147.748 174.067 146.908 172.914L151.185 169.885L150.927 169.474C149.856 167.773 148.115 167.373 146.54 168.482C144.93 169.616 144.613 171.634 145.743 173.43C146.866 175.213 148.756 175.643 150.389 174.493ZM147.123 169.409C148.064 168.747 149.064 168.957 149.662 169.908L146.465 172.159C145.966 171.054 146.193 170.064 147.123 169.409Z" fill="#6952F9"/>
<path d="M156.861 169.359L153.455 164.807L154.476 163.953L153.819 163.076L152.799 163.93L151.528 162.232L150.528 163.068L151.799 164.767L150.779 165.621L151.435 166.498L152.456 165.644L155.862 170.195L156.861 169.359Z" fill="#6952F9"/>
<path d="M162.329 161.747C163.231 162.669 164.505 162.526 165.581 161.348C166.665 160.16 166.841 158.757 165.938 157.835C165.23 157.112 164.479 157.155 163.509 157.807L162.501 158.48C161.936 158.852 161.498 158.88 161.178 158.553C160.741 158.107 160.798 157.512 161.349 156.908C161.882 156.324 162.491 156.293 162.985 156.758L163.827 155.837C162.906 154.936 161.67 155.058 160.669 156.154C159.66 157.26 159.502 158.602 160.375 159.494C161.073 160.207 161.874 160.214 162.891 159.531L163.889 158.848C164.492 158.455 164.835 158.489 165.155 158.816C165.592 159.262 165.498 159.919 164.881 160.595C164.302 161.229 163.656 161.321 163.171 160.826L162.329 161.747Z" fill="#6952F9"/>
<path d="M170.534 155.32L166.264 151.567L167.087 150.52L166.264 149.797L165.442 150.843L163.849 149.443L163.043 150.467L164.637 151.868L163.814 152.915L164.637 153.638L165.459 152.591L169.728 156.345L170.534 155.32Z" fill="#6952F9"/>
<path d="M174.427 150.357C175.034 149.445 175.159 148.382 174.728 147.63L175.683 148.168L176.297 147.245L172.882 144.704C171.414 143.612 170.072 144.029 169.143 145.426C168.176 146.881 168.276 148.405 169.411 149.249L170.041 148.302C169.384 147.814 169.34 147.005 169.947 146.093C170.454 145.331 171.152 145.005 172.065 145.684L172.22 145.799L171.172 147.677C170.389 149.079 170.497 150.316 171.499 151.061C172.489 151.797 173.621 151.57 174.427 150.357ZM173.822 149.442C173.354 150.146 172.773 150.369 172.195 149.939C171.661 149.542 171.566 148.884 172.114 147.86L172.962 146.334L173.252 146.549C174.275 147.311 174.506 148.414 173.822 149.442Z" fill="#6952F9"/>
<path d="M174.243 137.196C174.068 137.398 173.951 137.553 173.837 137.759C173.387 138.572 173.459 139.415 173.926 140.029L173.014 139.562L172.423 140.63L178.177 144.19L178.808 143.049L175.754 141.16C174.646 140.474 174.378 139.413 174.975 138.333L175.257 137.824L174.243 137.196Z" fill="#6952F9"/>
<path d="M182.245 136.418L177.212 133.774L177.778 132.569L176.809 132.06L176.243 133.265L174.365 132.278L173.811 133.457L175.689 134.444L175.123 135.649L176.093 136.158L176.658 134.954L181.691 137.598L182.245 136.418Z" fill="#6952F9"/>
<path d="M185.286 129.736C185.877 128.166 185.523 126.784 184.299 125.908L183.869 127.05C184.506 127.559 184.655 128.343 184.299 129.29C183.844 130.497 182.852 130.891 181.502 130.427L183.336 125.517L182.888 125.329C181.035 124.548 179.364 125.213 178.685 127.016C177.992 128.859 178.872 130.688 180.827 131.511C182.77 132.329 184.582 131.604 185.286 129.736ZM179.695 127.441C180.1 126.364 181.049 125.967 182.084 126.403L180.707 130.062C179.666 129.444 179.294 128.505 179.695 127.441Z" fill="#6952F9"/>
<path d="M188.262 120.776C188.542 119.731 188.328 118.712 187.553 118.016L188.764 118.264L189.066 117.139L179.292 114.204L178.958 115.45L183.287 116.75C182.371 116.952 181.707 117.664 181.437 118.669C180.916 120.61 182.064 122.214 184.056 122.812C186.035 123.406 187.751 122.677 188.262 120.776ZM187.201 120.182C186.856 121.468 185.699 121.931 184.358 121.528C183.03 121.129 182.275 120.092 182.62 118.807C182.965 117.521 184.133 117.018 185.461 117.417C186.815 117.824 187.546 118.897 187.201 120.182Z" fill="#6952F9"/>
<path d="M187.781 107.412L188.278 103.213L187.124 103.059L186.626 107.259L187.781 107.412Z" fill="#6952F9"/>
<path d="M181.234 94.9972L181.404 96.3453L191.331 94.9462L190.61 89.2235L189.36 89.3996L189.911 93.7742L181.234 94.9972Z" fill="#6952F9"/>
<path d="M189.523 82.9757C189.16 81.3377 188.121 80.4245 186.636 80.4497L186.899 81.641C187.701 81.6708 188.249 82.2206 188.468 83.2088C188.746 84.4677 188.141 85.3888 186.776 85.827L185.629 80.7134L185.158 80.8301C183.207 81.3137 182.188 82.8657 182.604 84.7473C183.03 86.6696 184.748 87.6292 186.807 87.1189C188.852 86.612 189.955 84.925 189.523 82.9757ZM183.668 84.4839C183.419 83.3603 183.987 82.4627 185.077 82.1926L185.922 86.0101C184.729 86.1344 183.913 85.5939 183.668 84.4839Z" fill="#6952F9"/>
<path d="M187.121 74.6984L181.742 76.5354L181.353 75.2623L180.316 75.6162L180.705 76.8893L178.697 77.5748L179.078 78.8214L181.085 78.1359L181.474 79.4089L182.511 79.055L182.122 77.7819L187.502 75.9449L187.121 74.6984Z" fill="#6952F9"/>
<path d="M184.089 71.7939C185.273 71.2839 185.686 70.0048 185.113 68.5167C184.536 67.0157 183.386 66.3042 182.201 66.8142C181.272 67.2145 180.992 67.9534 181.151 69.1371L181.312 70.3651C181.398 71.052 181.238 71.4832 180.817 71.6642C180.244 71.9109 179.749 71.6265 179.455 70.8631C179.171 70.1255 179.401 69.5285 180.015 69.2339L179.567 68.0694C178.393 68.6053 177.977 69.8401 178.51 71.2246C179.048 72.6221 180.153 73.2929 181.299 72.7993C182.216 72.4045 182.559 71.6381 182.393 70.3972L182.219 69.1747C182.131 68.4435 182.306 68.1268 182.726 67.9458C183.299 67.699 183.832 68.0427 184.161 68.8967C184.47 69.6989 184.277 70.3551 183.64 70.6294L184.089 71.7939Z" fill="#6952F9"/>
<path d="M177.278 60.1621C178.882 59.1448 179.534 57.2888 178.583 55.6122C178.057 54.6834 177.221 54.1639 176.335 54.2012L177.482 53.4735C178.571 52.7829 179.684 53.0611 180.313 54.1708C180.874 55.1599 180.751 56.1231 179.99 56.8025L180.633 57.9363C181.962 56.7984 182.218 55.1439 181.308 53.5396C180.283 51.7303 178.486 51.3122 176.682 52.4557L171.191 55.9383L171.765 56.9515L172.785 56.4196C172.283 57.2465 172.278 58.2496 172.818 59.2025C173.789 60.9153 175.662 61.1868 177.278 60.1621ZM176.612 59.0431C175.558 59.7114 174.332 59.5706 173.69 58.4368C173.033 57.2788 173.447 56.0984 174.547 55.4004C175.671 54.6876 176.864 54.8822 177.514 56.0281C178.143 57.1378 177.689 58.36 176.612 59.0431Z" fill="#6952F9"/>
<path d="M173.291 46.7227C172.322 45.3531 171.024 44.9326 169.69 45.5644L170.395 46.5605C171.132 46.2597 171.842 46.5449 172.427 47.3712C173.172 48.4238 172.984 49.5255 171.921 50.4911L168.883 46.2211L168.502 46.5223C166.926 47.77 166.611 49.626 167.724 51.1994C168.861 52.8067 170.79 52.9925 172.454 51.676C174.106 50.368 174.444 48.3526 173.291 46.7227ZM168.583 50.5196C167.918 49.5801 168.081 48.5156 168.962 47.8186L171.22 51.0105C170.189 51.6147 169.239 51.4478 168.583 50.5196Z" fill="#6952F9"/>
<path d="M167.951 40.2054L163.801 44.0906L162.947 43.0698L162.147 43.8184L163.002 44.8392L161.453 46.289L162.289 47.2885L163.838 45.8387L164.692 46.8594L165.492 46.1108L164.638 45.0901L168.787 41.2049L167.951 40.2054Z" fill="#6952F9"/>
<path d="M160.297 34.9763C161.113 33.9779 160.902 32.64 159.725 31.5639C158.538 30.4785 157.202 30.3632 156.386 31.3616C155.745 32.1452 155.831 32.9367 156.505 33.9281L157.201 34.9583C157.586 35.5362 157.639 35.997 157.349 36.3512C156.954 36.8343 156.389 36.8046 155.785 36.2525C155.202 35.7191 155.136 35.0775 155.546 34.5328L154.625 33.6907C153.829 34.7077 154.019 36.0068 155.114 37.008C156.219 38.0186 157.496 38.1179 158.286 37.1518C158.918 36.3789 158.876 35.5337 158.17 34.4942L157.466 33.4747C157.058 32.858 157.07 32.4935 157.359 32.1393C157.754 31.6563 158.38 31.722 159.055 32.3396C159.69 32.9197 159.815 33.5974 159.376 34.1341L160.297 34.9763Z" fill="#6952F9"/>
<path d="M153.677 26.7531L150.411 31.4062L149.364 30.5842L148.735 31.4808L149.782 32.3028L148.564 34.0392L149.589 34.844L150.807 33.1076L151.854 33.9296L152.483 33.033L151.436 32.211L154.702 27.5579L153.677 26.7531Z" fill="#6952F9"/>
<path d="M148.701 23.0275C147.787 22.424 146.765 22.3302 146.082 22.8079L146.523 21.7882L145.597 21.1771L143.434 24.8431C142.504 26.4193 143.001 27.8099 144.402 28.7342C145.86 29.6966 147.304 29.5382 148.022 28.3202L147.073 27.6939C146.658 28.3984 145.89 28.4726 144.976 27.8691C144.213 27.365 143.85 26.6444 144.428 25.6652L144.526 25.4981L146.393 26.5311C147.787 27.3021 148.957 27.1451 149.591 26.0704C150.218 25.0077 149.916 23.8295 148.701 23.0275ZM147.875 23.693C148.581 24.1589 148.837 24.7597 148.471 25.3806C148.132 25.9538 147.514 26.0762 146.497 25.5377L144.98 24.7023L145.163 24.3918C145.811 23.2932 146.845 23.0131 147.875 23.693Z" fill="#6952F9"/>
<path d="M136.274 23.8476C136.481 24.0232 136.64 24.1408 136.847 24.2533C137.663 24.6965 138.466 24.5966 139.018 24.0928L138.644 25.0555L139.716 25.6378L142.67 19.5506L141.525 18.9287L139.957 22.1594C139.388 23.3319 138.391 23.6416 137.306 23.0528L136.794 22.7749L136.274 23.8476Z" fill="#6952F9"/>
<path d="M135.033 15.7539L132.892 21.0201L131.681 20.469L131.268 21.4838L132.48 22.0348L131.681 24L132.867 24.5395L133.666 22.5743L134.878 23.1254L135.29 22.1107L134.079 21.5596L136.22 16.2934L135.033 15.7539Z" fill="#6952F9"/>
<path d="M128.506 13.0155C126.925 12.4541 125.606 12.8533 124.852 14.1295L126.002 14.5379C126.446 13.872 127.199 13.6983 128.153 14.037C129.368 14.4686 129.834 15.4724 129.493 16.866L124.55 15.1253L124.404 15.5879C123.795 17.5041 124.582 19.195 126.398 19.8399C128.253 20.4988 129.965 19.5481 130.607 17.5262C131.245 15.5174 130.387 13.6837 128.506 13.0155ZM126.729 18.7959C125.645 18.4108 125.179 17.4513 125.519 16.3808L129.203 17.6893C128.686 18.7701 127.801 19.1764 126.729 18.7959Z" fill="#6952F9"/>
<path d="M119.906 10.4966C118.854 10.2458 117.866 10.4947 117.241 11.3004L117.39 10.0678L116.257 9.79779L114.131 19.7785L115.385 20.0775L116.327 15.6567C116.598 16.5764 117.353 17.2264 118.364 17.4675C120.32 17.9336 121.811 16.7216 122.245 14.6875C122.675 12.6669 121.821 10.953 119.906 10.4966ZM119.404 11.5882C120.699 11.8968 121.246 13.0532 120.955 14.4228C120.666 15.7789 119.702 16.5752 118.408 16.2666C117.113 15.958 116.525 14.792 116.814 13.4359C117.109 12.0527 118.11 11.2796 119.404 11.5882Z" fill="#6952F9"/>
<path d="M107.558 11.6989L103.341 11.3873L103.264 12.5495L107.481 12.8611L107.558 11.6989Z" fill="#6952F9"/>
<path d="M94.0582 18.4231L95.4124 18.3119L94.6785 8.31431L88.93 8.78644L89.0223 10.0448L93.4166 9.68387L94.0582 18.4231Z" fill="#6952F9"/>
<path d="M83.2205 9.54125C81.5715 9.84989 80.5889 10.8659 80.5021 12.363L81.7014 12.1385C81.7913 11.3319 82.3768 10.7992 83.3717 10.613C84.6392 10.3758 85.5055 11.0175 85.8365 12.4082L80.6873 13.3861L80.7674 13.8647C81.0991 15.8476 82.5589 16.9283 84.4533 16.5737C86.3885 16.2115 87.468 14.5145 87.1179 12.4222C86.7702 10.3436 85.183 9.17394 83.2205 9.54125ZM84.2725 15.4934C83.1414 15.7051 82.2955 15.1018 82.1102 13.9941L85.9534 13.2748C85.9866 14.4815 85.3901 15.2842 84.2725 15.4934Z" fill="#6952F9"/>
<path d="M75.3812 11.5356L76.7535 17.0521L75.4712 17.409L75.7356 18.472L77.0179 18.1151L77.53 20.1737L78.7856 19.8243L78.2735 17.7657L79.5559 17.4088L79.2914 16.3458L78.0091 16.7027L76.6368 11.1861L75.3812 11.5356Z" fill="#6952F9"/>
<path d="M72.583 14.3807C72.1838 13.1546 70.9709 12.6968 69.4727 13.2426C67.9615 13.7931 67.1726 14.9506 67.5718 16.1767C67.8852 17.1391 68.5825 17.4455 69.7496 17.3153L70.9601 17.184C71.637 17.1144 72.0441 17.2906 72.1857 17.7257C72.3789 18.3189 72.0606 18.8183 71.292 19.0983C70.5494 19.3688 69.9864 19.1167 69.75 18.4802L68.5775 18.9073C69.0028 20.1239 70.1723 20.5828 71.5663 20.075C72.9733 19.5624 73.7187 18.4503 73.3323 17.2637C73.0232 16.3145 72.3045 15.9422 71.081 16.0782L69.8747 16.2226C69.1545 16.2933 68.8602 16.1055 68.7186 15.6705C68.5254 15.0772 68.9045 14.5409 69.7643 14.2277C70.5721 13.9335 71.1959 14.1486 71.4105 14.8078L72.583 14.3807Z" fill="#6952F9"/>
<path d="M61.2064 20.7034C60.3592 19.0033 58.6317 18.2697 56.9485 19.2082C56.016 19.7281 55.4512 20.5821 55.4162 21.5055L54.8101 20.2894C54.235 19.1353 54.5905 17.9857 55.7046 17.3645C56.6976 16.8108 57.6113 16.9674 58.2019 17.7799L59.3403 17.1452C58.3554 15.7279 56.7896 15.4117 55.1789 16.3097C53.3624 17.3225 52.8181 19.18 53.7705 21.0911L56.671 26.9111L57.6883 26.3439L57.2597 25.2667C58.0124 25.8143 58.9738 25.8492 59.9304 25.3158C61.6501 24.357 62.0599 22.4159 61.2064 20.7034ZM60.0805 21.3629C60.6371 22.4797 60.4042 23.7513 59.2659 24.386C58.1033 25.0342 57.0046 24.5685 56.4233 23.402C55.8295 22.2107 56.1114 20.9752 57.2618 20.3338C58.3759 19.7126 59.5115 20.2212 60.0805 21.3629Z" fill="#6952F9"/>
<path d="M48.2557 24.1511C46.884 25.117 46.3903 26.464 46.8938 27.8876L47.8913 27.1851C47.6591 26.4003 47.9816 25.665 48.8091 25.0823C49.8634 24.3398 50.8966 24.5775 51.7367 25.7302L47.4591 28.7597L47.7176 29.1704C48.7886 30.8718 50.5293 31.2717 52.105 30.162C53.7147 29.0284 54.0314 27.0102 52.9013 25.215C51.7785 23.4314 49.8881 23.0015 48.2557 24.1511ZM51.5215 29.2351C50.5806 29.8977 49.5809 29.6872 48.9826 28.7367L52.1794 26.4854C52.6786 27.5903 52.451 28.5804 51.5215 29.2351Z" fill="#6952F9"/>
<path d="M41.7836 29.2859L45.1896 33.8373L44.169 34.6917L44.8253 35.5687L45.8459 34.7143L47.1169 36.4127L48.1162 35.576L46.8452 33.8776L47.8658 33.0232L47.2095 32.1462L46.1889 33.0006L42.7829 28.4493L41.7836 29.2859Z" fill="#6952F9"/>
<path d="M36.3153 36.8971C35.4132 35.9757 34.1391 36.1188 33.064 37.2963C31.9796 38.4841 31.804 39.8878 32.706 40.8092C33.4141 41.5324 34.166 41.4891 35.1359 40.8374L36.1436 40.1648C36.7087 39.7922 37.1465 39.7644 37.4666 40.0914C37.9031 40.5372 37.8468 41.1327 37.2952 41.7368C36.7623 42.3205 36.1531 42.3513 35.6591 41.8863L34.8178 42.8078C35.7385 43.7087 36.9749 43.5864 37.9752 42.4908C38.9849 41.3849 39.1425 40.042 38.2695 39.1504C37.5711 38.437 36.7708 38.4308 35.7537 39.1136L34.7558 39.796C34.1529 40.1895 33.8093 40.1551 33.4892 39.8282C33.0527 39.3824 33.1461 38.7258 33.7631 38.05C34.3427 37.4151 34.9889 37.3232 35.4739 37.8186L36.3153 36.8971Z" fill="#6952F9"/>
<path d="M28.111 43.3241L32.3801 47.0779L31.5576 48.1244L32.3801 48.8476L33.2026 47.8011L34.7957 49.2019L35.6011 48.1772L34.008 46.7764L34.8305 45.7299L34.008 45.0067L33.1854 46.0532L28.9164 42.2994L28.111 43.3241Z" fill="#6952F9"/>
<path d="M24.2174 48.2871C23.6109 49.1992 23.4859 50.2624 23.9169 51.0145L22.9613 50.4762L22.3471 51.3998L25.7623 53.9404C27.2308 55.0328 28.5723 54.6157 29.5012 53.2187C30.4686 51.764 30.3681 50.2397 29.2334 49.3955L28.6039 50.3423C29.2602 50.8305 29.3041 51.6397 28.6976 52.5519C28.1909 53.3139 27.4921 53.6396 26.5799 52.961L26.4241 52.8451L27.4729 50.9678C28.2557 49.5656 28.1471 48.3286 27.1459 47.5838C26.1558 46.8473 25.0235 47.0748 24.2174 48.2871ZM24.8222 49.203C25.2905 48.4987 25.8715 48.2751 26.4499 48.7054C26.9839 49.1027 27.0789 49.76 26.5307 50.7845L25.6822 52.3105L25.393 52.0953C24.3696 51.334 24.1389 50.2305 24.8222 49.203Z" fill="#6952F9"/>
<path d="M24.4015 61.4483C24.5762 61.247 24.6937 61.0917 24.8077 60.8854C25.2573 60.0725 25.1852 59.2299 24.7181 58.6152L25.6308 59.0823L26.2213 58.0145L20.4673 54.4547L19.8366 55.5952L22.8904 57.4846C23.9988 58.1703 24.2665 59.2315 23.6693 60.3114L23.3875 60.821L24.4015 61.4483Z" fill="#6952F9"/>
<path d="M16.3998 62.2263L21.4321 64.8705L20.8662 66.0753L21.8359 66.5848L22.4017 65.38L24.2796 66.3667L24.8337 65.187L22.9558 64.2003L23.5216 62.9955L22.552 62.486L21.9862 63.6908L16.9539 61.0467L16.3998 62.2263Z" fill="#6952F9"/>
<path d="M13.357 68.9088C12.7659 70.4789 13.1193 71.8604 14.3438 72.7369L14.7736 71.595C14.1362 71.086 13.9873 70.3017 14.3439 69.3545C14.7982 68.1477 15.7903 67.7537 17.1407 68.2171L15.307 73.1275L15.7543 73.3159C17.6071 74.0962 19.2783 73.4319 19.9573 71.6282C20.6509 69.7856 19.7702 67.9565 17.8152 67.1332C15.8729 66.3152 14.0604 67.0402 13.357 68.9088ZM18.9478 71.2031C18.5424 72.2801 17.5935 72.6773 16.5584 72.2414L17.9359 68.5821C18.9762 69.2006 19.3483 70.1391 18.9478 71.2031Z" fill="#6952F9"/>
<path d="M10.3829 77.8687C10.1025 78.9132 10.3168 79.9326 11.0915 80.6283L9.88088 80.3805L9.57896 81.5054L19.3525 84.4403L19.6868 83.1949L15.3578 81.8949C16.2731 81.6923 16.9378 80.9802 17.2074 79.9759C17.7285 78.0342 16.5805 76.4305 14.5886 75.8324C12.61 75.2382 10.8933 75.9672 10.3829 77.8687ZM11.4433 78.4621C11.7884 77.1766 12.9458 76.7138 14.287 77.1165C15.6149 77.5153 16.3698 78.5523 16.0247 79.8378C15.6796 81.1234 14.5115 81.6263 13.1835 81.2276C11.829 80.8208 11.0983 79.7477 11.4433 78.4621Z" fill="#6952F9"/>
<path d="M10.8639 91.2326L10.3661 95.432L11.5207 95.5851L12.0185 91.3857L10.8639 91.2326Z" fill="#6952F9"/>
</svg>
