<svg width="35" height="34" viewBox="0 0 35 34" fill="none" xmlns="http://www.w3.org/2000/svg">
<path d="M31.6553 0.621094H2.90527C2.14278 0.621094 1.41151 0.908034 0.872341 1.41879C0.333174 1.92955 0.0302734 2.62228 0.0302734 3.3446V30.5797C0.0302734 31.302 0.333174 31.9948 0.872341 32.5055C1.41151 33.0163 2.14278 33.3032 2.90527 33.3032H22.4373C22.8148 33.3035 23.1885 33.233 23.5371 33.0957C23.8856 32.9584 24.2019 32.757 24.4678 32.5032L33.6857 23.7709C33.9537 23.5191 34.1662 23.2194 34.3112 22.8892C34.4562 22.5591 34.5306 22.205 34.5303 21.8474V3.3446C34.5303 2.62228 34.2274 1.92955 33.6882 1.41879C33.149 0.908034 32.4178 0.621094 31.6553 0.621094V0.621094ZM11.5303 10.1534H23.0303C23.4115 10.1534 23.7772 10.2968 24.0467 10.5522C24.3163 10.8076 24.4678 11.154 24.4678 11.5151C24.4678 11.8763 24.3163 12.2227 24.0467 12.478C23.7772 12.7334 23.4115 12.8769 23.0303 12.8769H11.5303C11.149 12.8769 10.7834 12.7334 10.5138 12.478C10.2442 12.2227 10.0928 11.8763 10.0928 11.5151C10.0928 11.154 10.2442 10.8076 10.5138 10.5522C10.7834 10.2968 11.149 10.1534 11.5303 10.1534V10.1534ZM17.2803 23.7709H11.5303C11.149 23.7709 10.7834 23.6275 10.5138 23.3721C10.2442 23.1167 10.0928 22.7703 10.0928 22.4092C10.0928 22.048 10.2442 21.7016 10.5138 21.4463C10.7834 21.1909 11.149 21.0474 11.5303 21.0474H17.2803C17.6615 21.0474 18.0272 21.1909 18.2967 21.4463C18.5663 21.7016 18.7178 22.048 18.7178 22.4092C18.7178 22.7703 18.5663 23.1167 18.2967 23.3721C18.0272 23.6275 17.6615 23.7709 17.2803 23.7709ZM11.5303 18.3239C11.149 18.3239 10.7834 18.1804 10.5138 17.9251C10.2442 17.6697 10.0928 17.3233 10.0928 16.9622C10.0928 16.601 10.2442 16.2546 10.5138 15.9992C10.7834 15.7439 11.149 15.6004 11.5303 15.6004H23.0303C23.4115 15.6004 23.7772 15.7439 24.0467 15.9992C24.3163 16.2546 24.4678 16.601 24.4678 16.9622C24.4678 17.3233 24.3163 17.6697 24.0467 17.9251C23.7772 18.1804 23.4115 18.3239 23.0303 18.3239H11.5303ZM23.0303 30.018V22.4092H31.0623L23.0303 30.018Z" fill="#6952F9"/>
</svg>
