<svg width="163" height="163" viewBox="0 0 163 163" fill="none" xmlns="http://www.w3.org/2000/svg">
<path fill-rule="evenodd" clip-rule="evenodd" d="M83.4089 0H79.5886V66.9841L62.2519 2.28277L58.5618 3.27154L75.9002 67.9795L42.4039 9.96204L39.0954 11.8722L72.5897 69.8862L25.2233 22.5198L22.5219 25.2211L69.8855 72.5847L11.8741 39.0918L9.96393 42.4003L9.96557 42.4012L9.96394 42.404L67.9759 75.8972L3.27043 58.5594L2.28166 62.2496L2.28229 62.2498L2.28166 62.2521L66.9776 79.5873H0V83.4076H66.9903L2.27963 100.747L3.2684 104.437L67.9877 87.0955L9.96393 120.596L11.8741 123.904L69.8881 90.4096L22.5185 137.779L25.2199 140.481L72.5848 93.1156L39.0937 151.124L42.4021 153.034L75.8975 95.0186L58.5582 159.73L62.2483 160.718L79.5886 96.0036V163H83.4089V96.0023L100.749 160.717L104.439 159.729L87.1008 95.0201L120.595 153.034L123.904 151.124L90.4073 93.1065L137.78 140.48L140.482 137.778L93.1147 90.4111L151.126 123.904L153.036 120.596L153.035 120.595L153.036 120.592L95.0367 87.1057L159.728 104.44L160.716 100.749L160.716 100.749L160.716 100.747L96.0052 83.4076H163V79.5873H96.0085L160.714 62.2495L159.726 58.5593L95.0284 75.8949L153.036 42.404L151.126 39.0955L93.1084 72.592L140.478 25.2222L137.777 22.5208L90.4024 69.8953L123.902 11.872L120.594 9.96189L87.0981 67.978L104.436 3.27243L100.746 2.28366L83.4089 66.9855V0Z" fill="#EE7BEA"/>
</svg>
