<svg width="31" height="30" viewBox="0 0 31 30" fill="none" xmlns="http://www.w3.org/2000/svg">
<path d="M19.8219 17.0212L28.993 13.8662C29.496 13.6912 29.9304 13.3745 30.2378 12.9587C30.5452 12.5429 30.711 12.048 30.7128 11.5404C30.7145 11.0328 30.5523 10.5368 30.2478 10.1191C29.9433 9.70136 29.5111 9.38193 29.0094 9.20371L3.5469 0.158401C3.07496 -0.00929411 2.56202 -0.0447255 2.06939 0.0563405C1.57676 0.157406 1.12526 0.390696 0.768845 0.728333C0.412427 1.06597 0.166162 1.49368 0.0594743 1.96035C-0.0472132 2.42703 -0.00981108 2.91293 0.167211 3.36V3.36L9.71565 27.4808C9.90097 27.957 10.2366 28.3677 10.6769 28.6568C11.1172 28.946 11.6408 29.0998 12.1766 29.0972H12.193C12.7279 29.0954 13.2494 28.9379 13.6866 28.646C14.1239 28.3541 14.4559 27.9419 14.6375 27.4653L17.968 18.7774L28.3203 28.5998C28.5741 28.8253 28.9076 28.9528 29.2555 28.9573C29.604 28.9559 29.9387 28.828 30.1906 28.5998C30.4371 28.3641 30.5754 28.0457 30.5754 27.714C30.5754 27.3822 30.4371 27.0638 30.1906 26.8281L19.8219 17.0212Z" fill="#6952F9"/>
</svg>
